ply
format ascii 1.0
comment created by MATLAB ply_write
element vertex 8
property float x
property float y
property float z
element face 12
property list uchar char vertex_indices
end_header
0.000000 0.000000 0.000000 
1.000000 0.000000 0.000000 
1.000000 0.000000 1.000000 
0.000000 0.000000 1.000000 
0.000000 1.000000 0.000000 
1.000000 1.000000 0.000000 
1.000000 1.000000 1.000000 
0.000000 1.000000 1.000000 
3 0 1 3 
3 1 3 2 
3 1 2 6 
3 1 6 5 
3 2 3 7 
3 2 7 6 
3 3 0 4 
3 3 4 7 
3 0 1 5 
3 0 5 4 
3 6 4 5 
3 6 7 4 